# xmcd CD database file
#
# Track frame offsets:
#	187
#	23057
#	39217
#	57717
#	75950
#	94437
#	111237
#	130430
#	143675
#	164517
#	175077
#
# Disc length: 2574 seconds
#
# Revision: 3
# Processed by: cddbd v1.5PL3 Copyright (c) Steve Scherf et al.
# Submitted via: CDex 1.51
#
DISCID=8f0a0c0b
DTITLE=サザンオールスターズ - タイニイ・バブルス
DYEAR=1984
DGENRE=Rock
TTITLE0=ふたりだけのパーティ〜Tiny Bubbles (Type-A)
TTITLE1=タバコ・ロードにセクシーばあちゃん
TTITLE2=Hey! Ryudo!
TTITLE3=私はピアノ
TTITLE4=涙のアベニュー
TTITLE5=TO YOU
TTITLE6=恋するマンスリーデイ
TTITLE7=松田の子守唄
TTITLE8=C調言葉に御用心
TTITLE9=Tiny Bubbles (Type-B)
TTITLE10=働けロック・バンド (Workin' for T.V.)
EXTD=YEAR: 1984
EXTT0=
EXTT1=
EXTT2=
EXTT3=
EXTT4=
EXTT5=
EXTT6=
EXTT7=
EXTT8=
EXTT9=
EXTT10=
PLAYORDER=
